HIERARCHY
ROOT hip
{
  OFFSET 0 90.174 2.4664
  CHANNELS 6 Xposition Yposition Zposition Zrotation Xrotation Yrotation
  JOINT abdomen
  {
    OFFSET 0 -1.186 -1.5018
    CHANNELS 6 Xposition Yposition Zposition Zrotation Xrotation Yrotation
    JOINT abdomen2
    {
      OFFSET 0 9.964 0.2134
      CHANNELS 6 Xposition Yposition Zposition Zrotation Xrotation Yrotation
      JOINT chest
      {
        OFFSET 0 13.134 -3.2573
        CHANNELS 6 Xposition Yposition Zposition Zrotation Xrotation Yrotation
        JOINT neck
        {
          OFFSET 0 20.686 -1.6905
          CHANNELS 6 Xposition Yposition Zposition Zrotation Xrotation Yrotation
          JOINT head
          {
            OFFSET 0 7.238 -0.1237
            CHANNELS 6 Xposition Yposition Zposition Zrotation Xrotation Yrotation
            End Site
            {
              OFFSET 0 0 0
            }
          }
        }
        JOINT lCollar
        {
          OFFSET 1.7069 20.075 5.0056
          CHANNELS 6 Xposition Yposition Zposition Zrotation Xrotation Yrotation
          JOINT lShldr
          {
            OFFSET 13.6458 -0.047 -4.849
            CHANNELS 6 Xposition Yposition Zposition Zrotation Xrotation Yrotation
            JOINT lForeArm
            {
              OFFSET 28.3255 -0.9759 2.2888
              CHANNELS 6 Xposition Yposition Zposition Zrotation Xrotation Yrotation
              JOINT lHand
              {
                OFFSET 22.1583 -0.53 10.8316
                CHANNELS 6 Xposition Yposition Zposition Zrotation Xrotation Yrotation
                JOINT lThumb1
                {
                  OFFSET 0.786 0.112 2.5817
                  CHANNELS 6 Xposition Yposition Zposition Zrotation Xrotation Yrotation
                  JOINT lThumb2
                  {
                    OFFSET 0.3601 -0.878 4.2331
                    CHANNELS 6 Xposition Yposition Zposition Zrotation Xrotation Yrotation
                    JOINT lThumb2_End
                    {
                      OFFSET 1.8127 -1.216 2.2227
                      CHANNELS 6 Xposition Yposition Zposition Zrotation Xrotation Yrotation
                      End Site
                      {
                        OFFSET 0.0181 -0.0122 0.0222
                      }
                    }
                  }
                }
                JOINT lCarpal1
                {
                  OFFSET 0.9571 1.114 1.7695
                  CHANNELS 6 Xposition Yposition Zposition Zrotation Xrotation Yrotation
                  JOINT lIndex1
                  {
                    OFFSET 4.1246 0.487 4.1451
                    CHANNELS 6 Xposition Yposition Zposition Zrotation Xrotation Yrotation
                    JOINT lIndex2
                    {
                      OFFSET 3.4052 -1.454 2.7682
                      CHANNELS 6 Xposition Yposition Zposition Zrotation Xrotation Yrotation
                      JOINT lIndex2_End
                      {
                        OFFSET 1.4531 -1.795 1.2713
                        CHANNELS 6 Xposition Yposition Zposition Zrotation Xrotation Yrotation
                        End Site
                        {
                          OFFSET 0.0145 -0.0179 0.0127
                        }
                      }
                    }
                  }
                  JOINT lMid1
                  {
                    OFFSET 5.6954 0.21 2.1184
                    CHANNELS 6 Xposition Yposition Zposition Zrotation Xrotation Yrotation
                    JOINT lMid2
                    {
                      OFFSET 3.9766 -1.54 2.3863
                      CHANNELS 6 Xposition Yposition Zposition Zrotation Xrotation Yrotation
                      JOINT lMid2_End
                      {
                        OFFSET 1.4042 -1.926 1.125
                        CHANNELS 6 Xposition Yposition Zposition Zrotation Xrotation Yrotation
                        End Site
                        {
                          OFFSET 0.014 -0.0193 0.0113
                        }
                      }
                    }
                  }
                }
                JOINT lCarpal2
                {
                  OFFSET 2.0956 0.66 -0.3894
                  CHANNELS 6 Xposition Yposition Zposition Zrotation Xrotation Yrotation
                  JOINT lRing1
                  {
                    OFFSET 5.0395 -0.09 2.4971
                    CHANNELS 6 Xposition Yposition Zposition Zrotation Xrotation Yrotation
                    JOINT lRing2
                    {
                      OFFSET 3.7921 -1.552 1.4806
                      CHANNELS 6 Xposition Yposition Zposition Zrotation Xrotation Yrotation
                      JOINT lRing2_End
                      {
                        OFFSET 1.4655 -1.808 0.9609
                        CHANNELS 6 Xposition Yposition Zposition Zrotation Xrotation Yrotation
                        End Site
                        {
                          OFFSET 0.0147 -0.0181 0.0096
                        }
                      }
                    }
                  }
                  JOINT lPinky1
                  {
                    OFFSET 4.9141 -1.269 0.3591
                    CHANNELS 6 Xposition Yposition Zposition Zrotation Xrotation Yrotation
                    JOINT lPinky2
                    {
                      OFFSET 3.1477 -1.685 0.8462
                      CHANNELS 6 Xposition Yposition Zposition Zrotation Xrotation Yrotation
                      JOINT lPinky2_End
                      {
                        OFFSET 0.8055 -1.585 0.7955
                        CHANNELS 6 Xposition Yposition Zposition Zrotation Xrotation Yrotation
                        End Site
                        {
                          OFFSET 0.0081 -0.0158 0.008
                        }
                      }
                    }
                  }
                }
              }
            }
          }
        }
        JOINT rCollar
        {
          OFFSET -1.7069 20.075 5.0056
          CHANNELS 6 Xposition Yposition Zposition Zrotation Xrotation Yrotation
          JOINT rShldr
          {
            OFFSET -13.6458 -0.047 -4.849
            CHANNELS 6 Xposition Yposition Zposition Zrotation Xrotation Yrotation
            JOINT rForeArm
            {
              OFFSET -28.3255 -0.9759 2.2888
              CHANNELS 6 Xposition Yposition Zposition Zrotation Xrotation Yrotation
              JOINT rHand
              {
                OFFSET -22.1583 -0.53 10.8316
                CHANNELS 6 Xposition Yposition Zposition Zrotation Xrotation Yrotation
                JOINT rThumb1
                {
                  OFFSET -0.786 0.112 2.5817
                  CHANNELS 6 Xposition Yposition Zposition Zrotation Xrotation Yrotation
                  JOINT rThumb2
                  {
                    OFFSET -0.3601 -0.878 4.2331
                    CHANNELS 6 Xposition Yposition Zposition Zrotation Xrotation Yrotation
                    JOINT rThumb2_End
                    {
                      OFFSET -1.8127 -1.216 2.2227
                      CHANNELS 6 Xposition Yposition Zposition Zrotation Xrotation Yrotation
                      End Site
                      {
                        OFFSET -0.0181 -0.0122 0.0222
                      }
                    }
                  }
                }
                JOINT rCarpal1
                {
                  OFFSET -0.9571 1.114 1.7695
                  CHANNELS 6 Xposition Yposition Zposition Zrotation Xrotation Yrotation
                  JOINT rIndex1
                  {
                    OFFSET -4.1246 0.487 4.1451
                    CHANNELS 6 Xposition Yposition Zposition Zrotation Xrotation Yrotation
                    JOINT rIndex2
                    {
                      OFFSET -3.4052 -1.454 2.7682
                      CHANNELS 6 Xposition Yposition Zposition Zrotation Xrotation Yrotation
                      JOINT rIndex2_End
                      {
                        OFFSET -1.4531 -1.795 1.2713
                        CHANNELS 6 Xposition Yposition Zposition Zrotation Xrotation Yrotation
                        End Site
                        {
                          OFFSET -0.0145 -0.018 0.0127
                        }
                      }
                    }
                  }
                  JOINT rMid1
                  {
                    OFFSET -5.6954 0.21 2.1184
                    CHANNELS 6 Xposition Yposition Zposition Zrotation Xrotation Yrotation
                    JOINT rMid2
                    {
                      OFFSET -3.9766 -1.54 2.3863
                      CHANNELS 6 Xposition Yposition Zposition Zrotation Xrotation Yrotation
                      JOINT rMid2_End
                      {
                        OFFSET -1.4042 -1.926 1.125
                        CHANNELS 6 Xposition Yposition Zposition Zrotation Xrotation Yrotation
                        End Site
                        {
                          OFFSET -0.014 -0.0193 0.0113
                        }
                      }
                    }
                  }
                }
                JOINT rCarpal2
                {
                  OFFSET -2.0956 0.66 -0.3894
                  CHANNELS 6 Xposition Yposition Zposition Zrotation Xrotation Yrotation
                  JOINT rRing1
                  {
                    OFFSET -5.0395 -0.09 2.4971
                    CHANNELS 6 Xposition Yposition Zposition Zrotation Xrotation Yrotation
                    JOINT rRing2
                    {
                      OFFSET -3.7921 -1.552 1.4806
                      CHANNELS 6 Xposition Yposition Zposition Zrotation Xrotation Yrotation
                      JOINT rRing2_End
                      {
                        OFFSET -1.4655 -1.808 0.9609
                        CHANNELS 6 Xposition Yposition Zposition Zrotation Xrotation Yrotation
                        End Site
                        {
                          OFFSET -0.0147 -0.0181 0.0096
                        }
                      }
                    }
                  }
                  JOINT rPinky1
                  {
                    OFFSET -4.9141 -1.269 0.3592
                    CHANNELS 6 Xposition Yposition Zposition Zrotation Xrotation Yrotation
                    JOINT rPinky2
                    {
                      OFFSET -3.1477 -1.685 0.8462
                      CHANNELS 6 Xposition Yposition Zposition Zrotation Xrotation Yrotation
                      JOINT rPinky2_End
                      {
                        OFFSET -0.8055 -1.585 0.7955
                        CHANNELS 6 Xposition Yposition Zposition Zrotation Xrotation Yrotation
                        End Site
                        {
                          OFFSET -0.0081 -0.0158 0.008
                        }
                      }
                    }
                  }
                }
              }
            }
          }
        }
      }
    }
  }
  JOINT lThigh
  {
    OFFSET 8.367 -8.2066 0.5982
    CHANNELS 6 Xposition Yposition Zposition Zrotation Xrotation Yrotation
    JOINT lShin
    {
      OFFSET 2.1923 -43.463 -0.4932
      CHANNELS 6 Xposition Yposition Zposition Zrotation Xrotation Yrotation
      JOINT lFoot
      {
        OFFSET 0.7333 -45.8593 -2.6451
        CHANNELS 6 Xposition Yposition Zposition Zrotation Xrotation Yrotation
        End Site
        {
          OFFSET 2.6618 -4.2699 12.3931
        }
      }
    }
  }
  JOINT rThigh
  {
    OFFSET -8.367 -8.2066 0.5982
    CHANNELS 6 Xposition Yposition Zposition Zrotation Xrotation Yrotation
    JOINT rShin
    {
      OFFSET -2.1923 -43.463 -0.4931
      CHANNELS 6 Xposition Yposition Zposition Zrotation Xrotation Yrotation
      JOINT rFoot
      {
        OFFSET -0.7333 -45.8593 -2.6451
        CHANNELS 6 Xposition Yposition Zposition Zrotation Xrotation Yrotation
        End Site
        {
          OFFSET -2.6618 -4.2699 12.3931
        }
      }
    }
  }
}
MOTION
Frames:	4
Frame Time:	0.0333333
0 90.174 2.4664 0 0 -0 0 -1.186 -1.5018 0 0 -0 0 9.964 0.2134 0 0 -0 0 13.134 -3.2573 0 0 -0 0 20.686 -1.6905 0 0 -0 0 7.238 -0.1237 0 0 -0 1.7069 20.075 5.0056 0 0 -0 13.6458 -0.047 -4.849 1.66051 0.0835086 5.75766 28.3255 -0.9759 2.2888 -0.0175111 0.895433 15.7816 22.1583 -0.53 10.8316 7.95139e-016 -1.98785e-016 -0 0.786 0.112 2.5817 5.46658e-016 -3.97569e-016 -0 0.3601 -0.878 4.2331 5.96354e-016 0 -0 1.8127 -1.216 2.2227 3.97569e-016 1.98785e-016 9.54166e-015 0.9571 1.114 1.7695 1.49089e-016 -3.97569e-016 -0 4.1246 0.487 4.1451 6.4605e-016 0 3.18055e-015 3.4052 -1.454 2.7682 5.96354e-016 0 3.18055e-015 1.4531 -1.795 1.2713 8.94531e-016 -1.98785e-016 6.36111e-015 5.6954 0.21 2.1184 6.4605e-016 0 3.18055e-015 3.9766 -1.54 2.3863 5.96354e-016 0 3.18055e-015 1.4042 -1.926 1.125 8.94531e-016 -1.98785e-016 6.36111e-015 2.0956 0.66 -0.3894 1.49089e-016 -3.97569e-016 -0 5.0395 -0.09 2.4971 6.4605e-016 0 3.18055e-015 3.7921 -1.552 1.4806 5.96354e-016 0 3.18055e-015 1.4655 -1.808 0.9609 8.94531e-016 -1.98785e-016 6.36111e-015 4.9141 -1.269 0.3591 6.4605e-016 0 3.18055e-015 3.1477 -1.685 0.8462 5.96354e-016 0 3.18055e-015 0.8055 -1.585 0.7955 8.94531e-016 -1.98785e-016 6.36111e-015 -1.7069 20.075 5.0056 0 0 -0 -13.6458 -0.047 -4.849 -1.4496 0.0636048 -5.0245 -28.3255 -0.9759 2.2888 -1.74811 1.20616 -16.8394 -22.1583 -0.53 10.8316 -1.19271e-015 1.98785e-016 -3.18055e-015 -0.786 0.112 2.5817 -3.97569e-016 1.98785e-016 -3.18055e-015 -0.3601 -0.878 4.2331 -2.98177e-016 1.98785e-016 -3.18055e-015 -1.8127 -1.216 2.2227 -2.98177e-016 3.97569e-016 -0 -0.9571 1.114 1.7695 4.96962e-016 0 -6.36111e-015 -4.1246 0.487 4.1451 -9.93923e-017 3.97569e-016 -0 -3.4052 -1.454 2.7682 -8.94531e-016 5.96354e-016 -0 -1.4531 -1.795 1.2713 -3.97569e-016 3.97569e-016 -0 -5.6954 0.21 2.1184 -9.93923e-017 3.97569e-016 -0 -3.9766 -1.54 2.3863 -8.94531e-016 5.96354e-016 -0 -1.4042 -1.926 1.125 -3.97569e-016 3.97569e-016 -0 -2.0956 0.66 -0.3894 4.96962e-016 0 -6.36111e-015 -5.0395 -0.09 2.4971 -9.93923e-017 3.97569e-016 -0 -3.7921 -1.552 1.4806 -8.94531e-016 5.96354e-016 -0 -1.4655 -1.808 0.9609 -3.97569e-016 3.97569e-016 -0 -4.9141 -1.269 0.3592 -9.93923e-017 3.97569e-016 -0 -3.1477 -1.685 0.8462 -8.94531e-016 5.96354e-016 -0 -0.8055 -1.585 0.7955 -3.97569e-016 3.97569e-016 -0 8.367 -8.2066 0.5982 -4.66115 -1.03232 0.120763 2.1923 -43.463 -0.4932 0.00990601 1.55097 0.177175 0.7333 -45.8593 -2.6451 4.65196 -0.54114 -0.255042 -8.367 -8.2066 0.5982 4.66115 -1.03222 -0.120763 -2.1923 -43.463 -0.4931 -0.00990459 1.5509 -0.177176 -0.7333 -45.8593 -2.6451 -4.65196 -0.541171 0.255041 
-7.45835 27.8643 22.3281 0 0 -0 0 -1.186 -1.5018 -0.0333365 8.00551 -0.102284 0 9.964 0.2134 -0.0528605 16.0111 -0.202829 0 13.134 -3.2573 -0.0528605 16.0111 -0.202829 8.88178e-016 20.686 -1.6905 0.102954 -17.8673 0.0356535 0 7.238 -0.1237 1.30311 -19.144 0.335026 1.7069 20.075 5.0056 -2.3728 -0.0373867 3.07246 13.6458 -0.047 -4.849 -55.1209 -17.0142 -39.0435 28.3255 -0.9759 2.2888 1.56341 -5.95568 -56.9705 22.1583 -0.53 10.8316 -41.8493 15.0374 4.99203 0.786 0.112 2.5817 -6.56755e-007 1.06845e-007 -2.54425e-007 0.3601 -0.878 4.2331 1.13594e-006 -6.35928e-007 -2.12223e-007 1.8127 -1.216 2.2227 -4.17161e-007 -1.57697e-007 -4.87749e-007 0.9571 1.114 1.7695 -1.32417e-031 -1.59028e-015 -4.77083e-015 4.1246 0.487 4.1451 -6.56755e-007 1.06845e-007 -2.54425e-007 3.4052 -1.454 2.7682 1.13594e-006 -6.35928e-007 -2.12223e-007 1.4531 -1.795 1.2713 -4.17161e-007 -1.57697e-007 -4.87749e-007 5.6954 0.21 2.1184 -6.56755e-007 1.06845e-007 -2.54425e-007 3.9766 -1.54 2.3863 1.13594e-006 -6.35928e-007 -2.12223e-007 1.4042 -1.926 1.125 -4.17161e-007 -1.57697e-007 -4.87749e-007 2.0956 0.66 -0.3894 -1.32417e-031 -1.59028e-015 -4.77083e-015 5.0395 -0.09 2.4971 -6.56755e-007 1.06845e-007 -2.54425e-007 3.7921 -1.552 1.4806 1.13594e-006 -6.35928e-007 -2.12223e-007 1.4655 -1.808 0.9609 -4.17161e-007 -1.57697e-007 -4.87749e-007 4.9141 -1.269 0.3591 -6.56755e-007 1.06845e-007 -2.54425e-007 3.1477 -1.685 0.8462 1.13594e-006 -6.35928e-007 -2.12223e-007 0.8055 -1.585 0.7955 -4.17161e-007 -1.57697e-007 -4.87749e-007 -1.7069 20.075 5.0056 7.99915 -0.194688 -0.00216376 -13.6458 -0.047 -4.849 51.8092 20.2239 30.0206 -28.3255 -0.9759 2.2888 -0.764912 -2.51091 52.0769 -22.1583 -0.53 10.8316 6.49222 2.60877 0.0253997 -0.786 0.112 2.5817 6.36111e-015 6.36111e-015 -3.18055e-015 -0.3601 -0.878 4.2331 3.18055e-015 1.27222e-014 -3.18055e-015 -1.8127 -1.216 2.2227 -5.29669e-031 -3.18055e-015 -9.54166e-015 -0.9571 1.114 1.7695 3.18055e-015 6.36111e-015 3.18055e-015 -4.1246 0.487 4.1451 -5.29669e-030 1.59028e-014 1.90833e-014 -3.4052 -1.454 2.7682 5.29669e-031 9.54166e-015 -3.18055e-015 -1.4531 -1.795 1.2713 3.18055e-015 0 -9.54166e-015 -5.6954 0.21 2.1184 -5.29669e-030 1.59028e-014 1.90833e-014 -3.9766 -1.54 2.3863 5.29669e-031 9.54166e-015 -3.18055e-015 -1.4042 -1.926 1.125 3.18055e-015 0 -9.54166e-015 -2.0956 0.66 -0.3894 3.18055e-015 6.36111e-015 3.18055e-015 -5.0395 -0.09 2.4971 -5.29669e-030 1.59028e-014 1.90833e-014 -3.7921 -1.552 1.4806 5.29669e-031 9.54166e-015 -3.18055e-015 -1.4655 -1.808 0.9609 3.18055e-015 0 -9.54166e-015 -4.9141 -1.269 0.3592 -5.29669e-030 1.59028e-014 1.90833e-014 -3.1477 -1.685 0.8462 5.29669e-031 9.54166e-015 -3.18055e-015 -0.8055 -1.585 0.7955 3.18055e-015 0 -9.54166e-015 8.367 -8.2066 0.5982 137.881 -55.807 140.469 2.1923 -43.463 -0.4932 166.04 66.6532 -153.087 0.7333 -45.8593 -2.6451 11.4666 0.0458132 1.31443 -8.367 -8.2066 0.5982 -86.4433 -30.2087 -109.169 -2.1923 -43.463 -0.4931 -170.185 20.8869 105.265 -0.7333 -45.8593 -2.6451 -16.4598 48.9946 41.5832 
-7.45835 27.8643 22.3281 0 0 -0 0 -1.186 -1.5018 -0.0333365 8.00551 -0.102284 -8.88178e-016 9.964 0.2134 -0.0528605 16.0111 -0.202829 0 13.134 -3.2573 -0.0528605 16.0111 -0.202829 0 20.686 -1.6905 0.465053 -17.7916 0.411472 0 7.238 -0.1237 1.30311 -19.144 0.335026 1.7069 20.075 5.0056 -2.3728 -0.0373867 3.07246 13.6458 -0.047 -4.849 -55.1209 -17.0142 -39.0435 28.3255 -0.9759 2.2888 1.5634 -5.95568 -56.9705 22.1583 -0.53 10.8316 -41.8493 15.0374 4.99203 0.786 0.112 2.5817 -2.39594e-007 2.64541e-007 2.33324e-007 0.3601 -0.878 4.2331 2.39594e-007 -2.64541e-007 -2.33324e-007 1.8127 -1.216 2.2227 -2.39594e-007 2.64541e-007 2.33324e-007 0.9571 1.114 1.7695 6.36111e-015 -3.18055e-015 -0 4.1246 0.487 4.1451 -2.39594e-007 2.64541e-007 2.33324e-007 3.4052 -1.454 2.7682 2.39594e-007 -2.64541e-007 -2.33324e-007 1.4531 -1.795 1.2713 -2.39594e-007 2.64541e-007 2.33324e-007 5.6954 0.21 2.1184 -2.39594e-007 2.64541e-007 2.33324e-007 3.9766 -1.54 2.3863 2.39594e-007 -2.64541e-007 -2.33324e-007 1.4042 -1.926 1.125 -2.39594e-007 2.64541e-007 2.33324e-007 2.0956 0.66 -0.3894 6.36111e-015 -3.18055e-015 -0 5.0395 -0.09 2.4971 -2.39594e-007 2.64541e-007 2.33324e-007 3.7921 -1.552 1.4806 2.39594e-007 -2.64541e-007 -2.33324e-007 1.4655 -1.808 0.9609 -2.39594e-007 2.64541e-007 2.33324e-007 4.9141 -1.269 0.3591 -2.39594e-007 2.64541e-007 2.33324e-007 3.1477 -1.685 0.8462 2.39594e-007 -2.64541e-007 -2.33324e-007 0.8055 -1.585 0.7955 -2.39594e-007 2.64541e-007 2.33324e-007 -1.7069 20.075 5.0056 7.99915 -0.194688 -0.00216371 -13.6458 -0.047 -4.849 51.8092 20.2239 30.0206 -28.3255 -0.9759 2.2888 -0.75633 -2.5183 52.2681 -22.1583 -0.53 10.8316 6.73981 2.70808 0.0205036 -0.786 0.112 2.5817 6.36111e-015 9.54166e-015 -3.18055e-015 -0.3601 -0.878 4.2331 3.18055e-015 0 -0 -1.8127 -1.216 2.2227 5.29669e-031 3.18055e-015 -9.54166e-015 -0.9571 1.114 1.7695 6.36111e-015 -3.18055e-015 -3.18055e-015 -4.1246 0.487 4.1451 1.76556e-031 -3.18055e-015 3.18055e-015 -3.4052 -1.454 2.7682 -3.18055e-015 1.27222e-014 -6.36111e-015 -1.4531 -1.795 1.2713 0 3.18055e-015 -0 -5.6954 0.21 2.1184 1.76556e-031 -3.18055e-015 3.18055e-015 -3.9766 -1.54 2.3863 -3.18055e-015 1.27222e-014 -6.36111e-015 -1.4042 -1.926 1.125 0 3.18055e-015 -0 -2.0956 0.66 -0.3894 6.36111e-015 -3.18055e-015 -3.18055e-015 -5.0395 -0.09 2.4971 1.76556e-031 -3.18055e-015 3.18055e-015 -3.7921 -1.552 1.4806 -3.18055e-015 1.27222e-014 -6.36111e-015 -1.4655 -1.808 0.9609 0 3.18055e-015 -0 -4.9141 -1.269 0.3592 1.76556e-031 -3.18055e-015 3.18055e-015 -3.1477 -1.685 0.8462 -3.18055e-015 1.27222e-014 -6.36111e-015 -0.8055 -1.585 0.7955 0 3.18055e-015 -0 8.367 -8.2066 0.5982 137.881 -55.807 140.469 2.1923 -43.463 -0.4932 166.04 66.6532 -153.087 0.7333 -45.8593 -2.6451 11.4666 0.0458063 1.31442 -8.367 -8.2066 0.5982 -86.4433 -30.2087 -109.169 -2.1923 -43.463 -0.4931 -170.185 20.887 105.265 -0.7333 -45.8593 -2.6451 -16.4599 48.9946 41.5832 
-7.45836 27.8643 22.3281 0 0 -0 0 -1.186 -1.5018 -0.0333365 8.00552 -0.102284 -8.88178e-016 9.964 0.2134 -0.0528605 16.0111 -0.202829 0 13.134 -3.2573 -0.0528605 16.0111 -0.202829 8.88178e-016 20.686 -1.6905 0.82689 -17.7127 0.787071 8.88178e-016 7.238 -0.1237 1.30311 -19.144 0.335026 1.7069 20.075 5.0056 -2.3728 -0.0374147 3.07245 13.6458 -0.047 -4.849 -55.1209 -17.0142 -39.0435 28.3255 -0.9759 2.2888 1.56342 -5.95567 -56.9705 22.1583 -0.53 10.8316 -41.8493 15.0374 4.99202 0.786 0.112 2.5817 2.15635e-006 -2.38087e-006 -2.09991e-006 0.3601 -0.878 4.2331 4.79188e-007 -5.29083e-007 -4.66648e-007 1.8127 -1.216 2.2227 -3.18055e-015 4.77083e-015 3.18055e-015 0.9571 1.114 1.7695 -6.36111e-015 -3.18055e-015 -3.18055e-015 4.1246 0.487 4.1451 2.15635e-006 -2.38087e-006 -2.09991e-006 3.4052 -1.454 2.7682 4.79188e-007 -5.29083e-007 -4.66648e-007 1.4531 -1.795 1.2713 -3.18055e-015 1.59028e-015 1.59028e-015 5.6954 0.21 2.1184 2.15635e-006 -2.38087e-006 -2.09991e-006 3.9766 -1.54 2.3863 4.79188e-007 -5.29083e-007 -4.66648e-007 1.4042 -1.926 1.125 -3.18055e-015 1.59028e-015 1.59028e-015 2.0956 0.66 -0.3894 -6.36111e-015 -3.18055e-015 -3.18055e-015 5.0395 -0.09 2.4971 2.15635e-006 -2.38087e-006 -2.09991e-006 3.7921 -1.552 1.4806 4.79188e-007 -5.29083e-007 -4.66648e-007 1.4655 -1.808 0.9609 -3.18055e-015 1.59028e-015 1.59028e-015 4.9141 -1.269 0.3591 2.15635e-006 -2.38087e-006 -2.09991e-006 3.1477 -1.685 0.8462 4.79188e-007 -5.29083e-007 -4.66648e-007 0.8055 -1.585 0.7955 -3.18055e-015 1.59028e-015 1.59028e-015 -1.7069 20.075 5.0056 7.99915 -0.19472 -0.00215942 -13.6458 -0.047 -4.849 51.8092 20.2239 30.0206 -28.3255 -0.9759 2.2888 -0.747696 -2.52564 52.4593 -22.1583 -0.53 10.8316 6.98763 2.80748 0.0152091 -0.786 0.112 2.5817 3.18055e-015 -9.54166e-015 -3.18055e-015 -0.3601 -0.878 4.2331 -2.95104e-006 4.53285e-006 -1.90307e-006 -1.8127 -1.216 2.2227 -1.59028e-014 0 -9.54166e-015 -0.9571 1.114 1.7695 -3.18055e-015 -9.54166e-015 -0 -4.1246 0.487 4.1451 6.36111e-015 -9.54166e-015 6.36111e-015 -3.4052 -1.454 2.7682 -2.95104e-006 4.53285e-006 -1.90307e-006 -1.4531 -1.795 1.2713 -1.27222e-014 0 -6.36111e-015 -5.6954 0.21 2.1184 6.36111e-015 -9.54166e-015 6.36111e-015 -3.9766 -1.54 2.3863 -2.95104e-006 4.53285e-006 -1.90307e-006 -1.4042 -1.926 1.125 -1.27222e-014 0 -6.36111e-015 -2.0956 0.66 -0.3894 -3.18055e-015 -9.54166e-015 -0 -5.0395 -0.09 2.4971 6.36111e-015 -9.54166e-015 6.36111e-015 -3.7921 -1.552 1.4806 -2.95104e-006 4.53285e-006 -1.90307e-006 -1.4655 -1.808 0.9609 -1.27222e-014 0 -6.36111e-015 -4.9141 -1.269 0.3592 6.36111e-015 -9.54166e-015 6.36111e-015 -3.1477 -1.685 0.8462 -2.95104e-006 4.53285e-006 -1.90307e-006 -0.8055 -1.585 0.7955 -1.27222e-014 0 -6.36111e-015 8.367 -8.2066 0.5982 137.881 -55.807 140.469 2.1923 -43.463 -0.4932 166.04 66.6532 -153.087 0.7333 -45.8593 -2.6451 11.4666 0.0458335 1.31443 -8.367 -8.2066 0.5982 -86.4432 -30.2087 -109.169 -2.1923 -43.463 -0.4931 -170.185 20.887 105.265 -0.7333 -45.8593 -2.6451 -16.4599 48.9946 41.5832 
